<svg width="69" height="83" viewBox="0 0 69 83" fill="none" xmlns="http://www.w3.org/2000/svg">
<path d="M11.4998 0C12.4387 0.000134089 13.3449 0.373318 14.0465 1.04877C14.7481 1.72422 15.1964 2.65496 15.3062 3.66445L15.333 4.15V8.5822L65.4376 12.4624C66.4224 12.538 67.3424 13.022 68.0058 13.8136C68.6692 14.6053 69.0248 15.6435 68.9987 16.712L68.9603 17.1852L65.1271 46.2351C65.0077 47.1449 64.6129 47.986 64.0045 48.6266C63.3961 49.2673 62.6086 49.6712 61.7653 49.7751L61.3321 49.8H15.333V58.1H53.6656C55.9113 58.1001 58.1078 58.8121 59.984 60.1481C61.8603 61.484 63.3342 63.3855 64.2239 65.6178C65.1135 67.8501 65.38 70.3156 64.9904 72.7099C64.6008 75.1043 63.5722 77.3228 62.0315 79.0916C60.4908 80.8604 58.5054 82.1021 56.3204 82.6635C54.1354 83.2249 51.8464 83.0815 49.7359 82.2508C47.6254 81.4201 45.7857 79.9386 44.4438 77.9891C43.102 76.0396 42.3168 73.7075 42.185 71.2804L42.1658 70.55L42.185 69.8196C42.254 68.6216 42.4661 67.4818 42.8213 66.4H22.3441C22.8912 68.0801 23.0989 69.8677 22.9532 71.6422C22.8074 73.4166 22.3117 75.1365 21.4993 76.6857C20.687 78.2349 19.5771 79.5774 18.2445 80.6224C16.9119 81.6674 15.3876 82.3906 13.7747 82.7432C12.1618 83.0958 10.4978 83.0696 8.89501 82.6663C7.29226 82.263 5.78813 81.492 4.4842 80.4054C3.18027 79.3188 2.10692 77.9419 1.33664 76.3677C0.566353 74.7935 0.117082 73.0587 0.0191667 71.2804L0 70.55L0.0191667 69.8196C0.150826 67.3726 0.946743 65.0221 2.30715 63.0628C3.66755 61.1035 5.53191 59.6225 7.66652 58.8055V8.3H3.83326C2.89437 8.29987 1.98817 7.92668 1.28655 7.25123C0.584929 6.57578 0.136683 5.64504 0.0268327 4.63555L0 4.15C0.000123855 3.13353 0.344825 2.15245 0.968723 1.39286C1.59262 0.633261 2.45232 0.147977 3.38477 0.0290499L3.83326 0H11.4998ZM11.4998 66.4C10.4831 66.4 9.50813 66.8372 8.78925 67.6155C8.07038 68.3938 7.66652 69.4494 7.66652 70.55C7.66652 71.6507 8.07038 72.7062 8.78925 73.4845C9.50813 74.2628 10.4831 74.7 11.4998 74.7C12.5164 74.7 13.4914 74.2628 14.2103 73.4845C14.9292 72.7062 15.333 71.6507 15.333 70.55C15.333 69.4494 14.9292 68.3938 14.2103 67.6155C13.4914 66.8372 12.5164 66.4 11.4998 66.4ZM53.6656 66.4C52.649 66.4 51.674 66.8372 50.9551 67.6155C50.2362 68.3938 49.8324 69.4494 49.8324 70.55C49.8324 71.6507 50.2362 72.7062 50.9551 73.4845C51.674 74.2628 52.649 74.7 53.6656 74.7C54.6823 74.7 55.6573 74.2628 56.3761 73.4845C57.095 72.7062 57.4989 71.6507 57.4989 70.55C57.4989 69.4494 57.095 68.3938 56.3761 67.6155C55.6573 66.8372 54.6823 66.4 53.6656 66.4Z" fill="white"/>
</svg>
