<svg width="33" height="19" viewBox="0 0 33 19" fill="none" xmlns="http://www.w3.org/2000/svg">
<path fill-rule="evenodd" clip-rule="evenodd" d="M0.703841 1.30403C1.15384 0.854587 1.76384 0.602139 2.39984 0.602139C3.03584 0.602139 3.64584 0.854587 4.09584 1.30403L15.9998 13.208L27.9038 1.30403C28.1236 1.06823 28.3885 0.879102 28.6829 0.747928C28.9773 0.616753 29.2951 0.54622 29.6174 0.540535C29.9396 0.534849 30.2597 0.594127 30.5586 0.714834C30.8574 0.835542 31.1289 1.01521 31.3568 1.24311C31.5847 1.47101 31.7643 1.74247 31.885 2.04131C32.0057 2.34016 32.065 2.66025 32.0593 2.9825C32.0536 3.30475 31.9831 3.62255 31.8519 3.91695C31.7208 4.21135 31.5316 4.47631 31.2958 4.69603L17.6958 18.296C17.2458 18.7455 16.6358 18.9979 15.9998 18.9979C15.3638 18.9979 14.7538 18.7455 14.3038 18.296L0.703841 4.69603C0.254399 4.24603 0.00195313 3.63603 0.00195312 3.00003C0.00195313 2.36402 0.254399 1.75403 0.703841 1.30403Z" fill="white"/>
</svg>
