<svg width="81" height="111" viewBox="0 0 81 111" fill="none" xmlns="http://www.w3.org/2000/svg">
<path d="M40.6633 0.909851C46.2945 0.909851 51.7992 2.51547 56.4814 5.52367C61.1636 8.53186 64.8129 12.8075 66.9678 17.81C69.1228 22.8124 69.6866 28.317 68.588 33.6275C67.4894 38.9381 64.7778 43.8162 60.7959 47.6449C56.8141 51.4736 51.7409 54.081 46.2179 55.1373C40.6949 56.1937 34.9701 55.6515 29.7676 53.5794C24.5651 51.5073 20.1184 47.9984 16.9898 43.4963C13.8613 38.9942 12.1915 33.7012 12.1915 28.2866L12.2199 27.0985C12.5384 20.0503 15.6742 13.3924 20.9734 8.51325C26.2727 3.63406 33.3263 0.910259 40.6633 0.909851ZM52.052 66.6141C59.6032 66.6141 66.8451 69.4984 72.1846 74.6325C77.5241 79.7667 80.5238 86.7301 80.5238 93.9908V99.4662C80.5238 102.37 79.324 105.156 77.1882 107.209C75.0524 109.263 72.1556 110.417 69.1351 110.417H12.1915C9.17099 110.417 6.27422 109.263 4.13842 107.209C2.00261 105.156 0.802734 102.37 0.802734 99.4662V93.9908C0.802734 86.7301 3.80244 79.7667 9.14194 74.6325C14.4814 69.4984 21.7234 66.6141 29.2746 66.6141H52.052Z" fill="#FFBE58"/>
</svg>
